<svg width="1206" height="285" viewBox="0 0 1206 285" fill="none" xmlns="http://www.w3.org/2000/svg">
<path d="M1168.49 51H1205.09V87.6H1168.49V51ZM1168.49 87.6H1205.09V124.2H1168.49V87.6ZM1168.49 124.2H1205.09V160.8H1168.49V124.2ZM1168.49 160.8H1205.09V197.4H1168.49V160.8ZM1168.49 197.4H1205.09V234H1168.49V197.4ZM1131.89 87.6H1168.49V124.2H1131.89V87.6ZM1095.29 124.2H1131.89V160.8H1095.29V124.2ZM1095.29 160.8H1131.89V197.4H1095.29V160.8ZM1131.89 197.4H1168.49V234H1131.89V197.4Z" fill="#222222" fill-opacity="0.133333"/>
<path d="M949.028 87.6H985.628V124.2H949.028V87.6ZM949.028 124.2H985.628V160.8H949.028V124.2ZM949.028 160.8H985.628V197.4H949.028V160.8ZM985.628 197.4H1022.23V234H985.628V197.4ZM1022.23 197.4H1058.83V234H1022.23V197.4ZM1022.23 160.8H1058.83V197.4H1022.23V160.8ZM1022.23 124.2H1058.83V160.8H1022.23V124.2ZM1022.23 87.6H1058.83V124.2H1022.23V87.6Z" fill="#222222" fill-opacity="0.133333"/>
<path d="M802.771 87.6H839.371V124.2H802.771V87.6ZM802.771 124.2H839.371V160.8H802.771V124.2ZM802.771 160.8H839.371V197.4H802.771V160.8ZM839.371 197.4H875.971V234H839.371V197.4ZM875.971 197.4H912.571V234H875.971V197.4ZM875.971 160.8H912.571V197.4H875.971V160.8ZM875.971 124.2H912.571V160.8H875.971V124.2ZM875.971 87.6H912.571V124.2H875.971V87.6Z" fill="#222222" fill-opacity="0.133333"/>
<path d="M729.643 51H766.243V87.6H729.643V51ZM729.643 87.6H766.243V124.2H729.643V87.6ZM729.643 124.2H766.243V160.8H729.643V124.2ZM729.643 160.8H766.243V197.4H729.643V160.8ZM729.643 197.4H766.243V234H729.643V197.4Z" fill="#222222" fill-opacity="0.133333"/>
<path d="M619.985 87.6H656.585V124.2H619.985V87.6ZM583.385 124.2H619.985V160.8H583.385V124.2ZM583.385 160.8H619.985V197.4H583.385V160.8ZM619.985 197.4H656.585V234H619.985V197.4ZM656.585 87.6H693.185V124.2H656.585V87.6ZM656.585 197.4H693.185V234H656.585V197.4Z" fill="#222222" fill-opacity="0.133333"/>
<path d="M437.128 197.4H473.728V234H437.128V197.4ZM437.128 160.8H473.728V197.4H437.128V160.8ZM437.128 124.2H473.728V160.8H437.128V124.2ZM437.128 87.6H473.728V124.2H437.128V87.6ZM473.728 87.6H510.328V124.2H473.728V87.6ZM510.328 124.2H546.928V160.8H510.328V124.2ZM510.328 160.8H546.928V197.4H510.328V160.8ZM510.328 197.4H546.928V234H510.328V197.4Z" fill="#222222" fill-opacity="0.133333"/>
<path d="M364 51H400.6V87.6H364V51ZM364 87.6H400.6V124.2H364V87.6ZM364 124.2H400.6V160.8H364V124.2ZM364 160.8H400.6V197.4H364V160.8ZM364 197.4H400.6V234H364V197.4Z" fill="#222222" fill-opacity="0.133333"/>
<rect x="6" y="6" width="273" height="273" rx="70" fill="#0F1111" stroke="url(#paint0_linear_82_56)" stroke-width="12"/>
<path d="M180.188 131.375V120.75H105.812V131.375H132.375V145.899L111.826 181.865L121.049 187.135L140.769 152.625H145.231L164.951 187.135L174.174 181.865L153.625 145.899V131.375H180.188Z" fill="#5586FF"/>
<path d="M143 115.438C148.868 115.438 153.625 110.681 153.625 104.812C153.625 98.9445 148.868 94.1875 143 94.1875C137.132 94.1875 132.375 98.9445 132.375 104.812C132.375 110.681 137.132 115.438 143 115.438Z" fill="#5586FF"/>
<path d="M143 216.375C128.29 216.375 113.91 212.013 101.679 203.841C89.4486 195.668 79.9158 184.052 74.2865 170.462C68.6572 156.872 67.1844 141.918 70.0541 127.49C72.9239 113.063 80.0074 99.8105 90.409 89.4089C100.81 79.0074 114.063 71.9239 128.49 69.0541C142.918 66.1843 157.872 67.6572 171.462 73.2865C185.052 78.9157 196.668 88.4486 204.841 100.679C213.013 112.91 217.375 127.29 217.375 142C217.353 161.719 209.51 180.623 195.567 194.567C181.623 208.51 162.719 216.353 143 216.375ZM143 78.25C130.391 78.25 118.066 81.9889 107.582 88.9938C97.0988 95.9988 88.9278 105.955 84.1027 117.604C79.2776 129.253 78.0152 142.071 80.475 154.437C82.9348 166.803 89.0064 178.162 97.922 187.078C106.838 195.994 118.197 202.065 130.563 204.525C142.929 206.985 155.747 205.722 167.396 200.897C179.045 196.072 189.001 187.901 196.006 177.418C203.011 166.934 206.75 154.609 206.75 142C206.731 125.098 200.008 108.894 188.057 96.9432C176.106 84.992 159.902 78.2693 143 78.25Z" fill="#5586FF"/>
<defs>
<linearGradient id="paint0_linear_82_56" x1="1.02176e-06" y1="143" x2="285" y2="143" gradientUnits="userSpaceOnUse">
<stop stop-color="#9648FF"/>
<stop offset="1" stop-color="#02D4FF"/>
</linearGradient>
</defs>
</svg>
